<?xml version="1.0" standalone="no"?>
<!DOCTYPE svg PUBLIC "-//W3C//DTD SVG 20010904//EN"
 "http://www.w3.org/TR/2001/REC-SVG-20010904/DTD/svg10.dtd">
<svg version="1.0" xmlns="http://www.w3.org/2000/svg"
 width="1280.000000pt" height="1280.000000pt" viewBox="0 0 1280.000000 1280.000000"
 preserveAspectRatio="xMidYMid meet">

<g transform="translate(0.000000,1280.000000) scale(0.100000,-0.100000)"
fill="#000000" stroke="none">
<path d="M6135 12789 c-1156 -55 -2239 -398 -3190 -1013 -1454 -938 -2475
-2432 -2810 -4111 -95 -476 -132 -909 -122 -1400 14 -624 101 -1171 282 -1757
110 -355 222 -630 405 -993 322 -638 705 -1162 1221 -1671 989 -973 2253
-1596 3609 -1778 295 -39 364 -45 632 -57 939 -40 1943 151 2813 536 1349 597
2439 1623 3117 2935 632 1223 849 2645 613 4008 -346 1996 -1612 3704 -3425
4622 -811 410 -1692 638 -2628 680 -231 11 -274 10 -517 -1z m1700 -3059 c570
-87 1027 -308 1375 -666 248 -255 393 -494 511 -841 85 -251 122 -492 122
-803 0 -361 -50 -671 -168 -1039 -316 -979 -1038 -1902 -1989 -2541 -268 -180
-664 -391 -931 -496 -405 -159 -784 -253 -1175 -290 -198 -19 -624 -14 -815
10 -713 90 -1050 327 -960 676 17 65 99 334 202 660 30 96 77 247 105 335 27
88 76 246 109 350 264 833 754 2403 826 2646 l68 230 1160 -4 c1225 -4 1229
-4 1457 -52 361 -75 583 -251 644 -513 20 -83 14 -328 -11 -442 -48 -221 -177
-525 -303 -715 -88 -133 -254 -299 -388 -388 -265 -175 -590 -274 -1013 -307
-74 -5 -381 -10 -683 -10 l-547 0 -9 -32 c-6 -18 -102 -325 -216 -681 -216
-679 -224 -713 -191 -777 9 -17 34 -40 58 -52 41 -22 49 -23 327 -22 277 1
388 9 580 45 951 175 1829 776 2416 1654 299 447 520 979 600 1445 22 129 30
439 14 570 -29 256 -121 513 -253 710 -325 484 -870 776 -1622 866 -193 23
-574 23 -750 0 -686 -90 -1348 -371 -1945 -827 -172 -131 -278 -224 -449 -392
-323 -319 -577 -657 -777 -1031 -30 -56 -54 -97 -54 -92 0 18 151 297 235 434
637 1041 1688 1869 2830 2229 252 79 603 151 845 172 181 16 604 6 765 -19z"/>
<path d="M6659 7414 l-226 -355 -384 0 -384 1 65 -62 c36 -34 142 -134 235
-221 94 -88 171 -163 173 -166 1 -4 -101 -166 -226 -361 -126 -195 -228 -356
-227 -358 1 -1 166 95 366 214 200 119 370 218 377 221 7 3 95 -74 198 -173
102 -99 209 -199 237 -224 l50 -44 -6 361 -6 361 67 40 c37 21 200 117 362
212 162 95 302 179 310 187 13 12 -37 14 -350 13 -201 -1 -371 -1 -377 -1 -10
1 -13 79 -13 356 0 195 -3 355 -7 355 -5 -1 -110 -161 -234 -356z"/>
</g>
</svg>
